<?xml version="1.0" encoding="UTF-8"?>
<!DOCTYPE svg PUBLIC "-//W3C//DTD SVG 1.1//EN" "http://www.w3.org/Graphics/SVG/1.1/DTD/svg11.dtd">
<svg xmlns="http://www.w3.org/2000/svg" version="1.1" width="512px" height="512px">
	<g fill="hsla(205, 70%, 50%, 1)" transform="scale(1.03) translate(-12 -40)">
		<path d="
			m 489.65804,191.55251c -3.99,-5.33 -9.61,-9.419 -16.854,-12.275c 0.387,6.665 -0.086,12.09 -1.42,16.281l -86.51229,278.88707c -5.72422,12.72696 -14.20996,19.13024 -25.11871,19.17793l -263.518004,0c -22.84,0 -36.542,-6.652 -41.112,-19.985c -1.903,-5.14 -1.807,-9.229 0.288,-12.275c 2.092,-2.857 5.708,-4.288 10.85,-4.288l 248.102004,0c 17.702,0 29.93,-3.285 36.688,-9.852c 6.763,-6.567 13.565,-21.177 20.413,-43.824l 78.228,-258.669c 8.36133,-30.00241 -10.95364,-52.845604 -37.689,-53.100005c -79.12177,0.199871 -171.06823,-0.144322 -245.105,0.138c -3.71,0.099 -7.137,1.192 -10.277,3.289c -3.14,2.094 -5.664,4.328 -7.566,6.706005c -1.903,2.38 -3.99551,5.08889 -5.568,9.136l -118.908004,330.18c -4.187,11.424 -3.999,23.511 0.572,36.269c 5.33,14.838 14.797,27.36 28.406,37.541c 13.61,10.185 27.74,15.27 42.398,15.27l 263.521004,0c 28.4596,-1.5873 48.8762,-18.12123 56.808,-43.112l 78.511,-258.662c 4.192,-13.708 2.481,-25.984 -5.137,-36.833z
		"/>
	</g>
	<g fill="#E60000" transform="scale(0.8) translate(70 5)">
		<rect
			x="170" y="120"
			height="330" width="140"
			style="fill: #F0FF2B;"
		/>
		<path d="
			M 479.963,425.047 L 269.051,29.854 c -5.259,-9.88 -15.565,-16.081 -26.782,-16.081 l -0.03,0 c -11.217,0 -21.492,6.171 -26.782,16.051 L 3.603,425.016 c -5.046,9.485 -4.773,20.854 0.699,29.974 c 5.502,9.15 15.413,14.774 26.083,14.774 l 422.735,0 c 10.701,0 20.58,-5.594 26.083,-14.774 c 5.502,-9.15 5.776,-20.519 0.76,-29.943 z M 241.69571,413.76409 c -19.22465,-0.0409 -33.54509,-16.51732 -33.29656,-35.01699 c 0.24852,-18.49967 16.26,-35.02337 34.38314,-35.10754 c 18.12314,-0.0842 33.98225,16.02036 34.38315,35.28864 c 0.4009,19.26827 -16.24509,34.87677 -35.46973,34.83589 z m 25.26872,-125.09515 c -1.49247,16.74462 -8.30663,30.5801 -25.05663,30.5801 c -16.781,0 -21.64165,-14.12738 -23.33619,-30.85175 L 206.24033,166.69321 c -1.82243,-17.98665 14.55618,-35.7094 36.12022,-35.6353 c 21.56404,0.0741 37.09643,17.45208 35.50191,35.34168 z
		"/>
	</g>
</svg>
