<?xml version="1.0" encoding="UTF-8"?>
<!DOCTYPE svg PUBLIC "-//W3C//DTD SVG 1.1//EN" "http://www.w3.org/Graphics/SVG/1.1/DTD/svg11.dtd">
<svg xmlns="http://www.w3.org/2000/svg" xmlns:xlink="http://www.w3.org/1999/xlink" version="1.1" x="0px" y="0px" width="512px" height="512px">
	<defs>
		<filter id="shadow">
			<feOffset result="offOut" in="SourceAlpha" dx="15" dy="25" />
			<feGaussianBlur result="blurOut" in="offOut" stdDeviation="15" />
			<feBlend in="SourceGraphic" in2="blurOut" mode="normal" />
		</filter>
	</defs>
	<g fill="hsla(205, 70%, 50%, 1)" transform="scale(1.03) translate(-12 -40)">
		<path d="
			m 489.65804,191.55251c -3.99,-5.33 -9.61,-9.419 -16.854,-12.275c 0.387,6.665 -0.086,12.09 -1.42,16.281l -86.51229,278.88707c -5.72422,12.72696 -14.20996,19.13024 -25.11871,19.17793l -263.518004,0c -22.84,0 -36.542,-6.652 -41.112,-19.985c -1.903,-5.14 -1.807,-9.229 0.288,-12.275c 2.092,-2.857 5.708,-4.288 10.85,-4.288l 248.102004,0c 17.702,0 29.93,-3.285 36.688,-9.852c 6.763,-6.567 13.565,-21.177 20.413,-43.824l 78.228,-258.669c 8.36133,-30.00241 -10.95364,-52.845604 -37.689,-53.100005c -79.12177,0.199871 -171.06823,-0.144322 -245.105,0.138c -3.71,0.099 -7.137,1.192 -10.277,3.289c -3.14,2.094 -5.664,4.328 -7.566,6.706005c -1.903,2.38 -3.99551,5.08889 -5.568,9.136l -118.908004,330.18c -4.187,11.424 -3.999,23.511 0.572,36.269c 5.33,14.838 14.797,27.36 28.406,37.541c 13.61,10.185 27.74,15.27 42.398,15.27l 263.521004,0c 28.4596,-1.5873 48.8762,-18.12123 56.808,-43.112l 78.511,-258.662c 4.192,-13.708 2.481,-25.984 -5.137,-36.833z
		"/>
	</g>
	<g fill="hsla(136, 90%, 45%, 1)" transform="scale(0.96) translate(25 -120)">
		<path filter="url(#shadow)" d="
			m 379.04707,310.25407l -74.33388,0l 0,-167.42407c -0.263,-8.18875 -6.99324,-13.62174 -14.56712,-13.70949l -142.74808,0c -8.69996,0.24575 -14.47813,6.58113 -14.57191,13.70949l 0,167.43007l -74.332274,0c -13.304601,0.28661 -17.617915,15.09843 -10.922954,23.1478L 209.21106,497.9397c 6.70428,6.01796 15.2306,6.07276 21.40414,0L 389.98118,333.40787c 7.96606,-10.15386 0.14514,-23.0198 -10.93411,-23.1538z
		"/>
	</g>
</svg>
