<?xml version="1.0" encoding="UTF-8"?>
<!DOCTYPE svg PUBLIC "-//W3C//DTD SVG 1.1//EN" "http://www.w3.org/Graphics/SVG/1.1/DTD/svg11.dtd">
<svg xmlns="http://www.w3.org/2000/svg" version="1.1" width="512px" height="512px">
	<g fill="hsla(205, 70%, 50%, 1)" transform="scale(1.03) translate(-12 -40)">
		<path d="
			m 490,192c -4,-5 -10,-9 -17,-12c 0,7 -0,12 -1,16l -87,279c -6,13 -14,19 -25,19l -264,0c -23,0 -37,-7 -41,-20c -2,-5 -2,-9 0,-12c 2,-3 6,-4 11,-4l 248,0c 18,0 30,-3 37,-10c 7,-7 14,-21 20,-44l 78,-259c 8,-30 -11,-53 -38,-53c -79,0 -171,-0 -245,0c -4,0 -7,1 -10,3c -3,2 -6,4 -8,7c -2,2 -4,5 -6,9l -119,330c -4,11 -4,24 1,36c 5,15 15,27 28,38c 14,10 28,15 42,15l 264,0c 28,-2 49,-18 57,-43l 79,-259c 4,-14 2,-26 -5,-37z
		"/>
	</g>
	<g fill="hsla(136, 90%, 45%, 1)" transform="scale(0.96) translate(25 -120)">
		<defs><filter id="shadow" x="-15%" width="140%" height="135%">
			<feOffset result="offOut" in="SourceAlpha" dx="15" dy="25" />
			<feGaussianBlur result="blurOut" in="offOut" stdDeviation="15" />
			<feBlend in="SourceGraphic" in2="blurOut" mode="normal" />
		</filter></defs>
		<path filter="url(#shadow)" d="
			m 379,310l -74,0l 0,-167c -0,-8 -7,-14 -15,-14l -143,0c -9,0 -14,7 -15,14l 0,167l -74,0c -13,0 -18,15 -11,23L 209,498c 7,6 15,6 21,0L 390,333c 8,-10 0,-23 -11,-23z
		"/>
	</g>
</svg>
